<?xml version="1.0" encoding="UTF-8" standalone="no"?>
<svg
   viewBox="0 0 384 512"
   version="1.1"
   id="svg834"
   xmlns="http://www.w3.org/2000/svg"
   xmlns:svg="http://www.w3.org/2000/svg">
  <defs
     id="defs838" />
  <path
     style="fill:#e3ff88;fill-opacity:1;stroke:none;stroke-width:0.860986px;stroke-linecap:butt;stroke-linejoin:miter;stroke-opacity:1"
     d="M 194.09289,479.54547 C 181.5009,491.43826 164.4154,489.80653 145.90445,489.88473 54.164366,481.08842 41.150355,411.56583 45.164143,328.90865 l 130.156697,4.52488 c 66.56761,12.53947 21.0826,96.58235 18.77205,146.11194 z"
     id="path15002" />
  <path
     style="fill:none;stroke:#000000;stroke-width:22.7791;stroke-linecap:round;stroke-linejoin:miter;stroke-miterlimit:4;stroke-dasharray:none;stroke-opacity:1"
     d="M 145.90445,489.88473 C 50.287884,498.64077 37.297623,344.51435 46.061273,331.93006 c 7.425126,-10.66223 83.499887,-21.76724 129.259567,1.50347"
     id="path10544" />
  <path
     d="M 194.19753,19.756526 C 106.41141,20.025584 43.180604,91.18116 43.180604,170.5038 c 0,38.21055 14.154608,73.04604 37.504545,99.70216 14.232097,16.22098 36.454141,50.13521 44.960681,78.73716 0.0269,0.21525 0.0808,0.44478 0.10763,0.67355 h 137.92993 c 0.027,-0.22868 0.0807,-0.44478 0.10762,-0.67355 8.50224,-28.60195 30.72859,-62.51618 44.96069,-78.73716 23.37576,-25.91568 37.49593,-60.69951 37.49593,-99.70216 0,-83.076538 -68.10398,-151.002901 -152.0501,-150.747274 z m 0.51658,82.651894 c -37.9953,0 -68.87887,30.90079 -68.87887,68.10399 0,8.34294 -6.19909,14.54204 -13.77576,14.54204 -7.57668,0 -13.775779,-6.1991 -13.775779,-13.77577 0,-53.17449 43.264539,-95.655534 96.430409,-95.655534 7.61456,0 13.77578,6.163798 13.77578,13.775774 0,7.611976 -6.1991,13.0095 -13.77578,13.0095 z"
     id="path832"
     style="opacity:1;fill:#ffc38c;fill-opacity:1;stroke:#1b1b1b;stroke-width:32.5412;stroke-linejoin:round;stroke-miterlimit:4;stroke-dasharray:none;stroke-opacity:1" />
  <path
     d="m 123.76647,414.77294 c 0,5.00437 1.44322,9.88635 4.19932,14.05865 l 13.62157,20.41647 c 4.1723,6.25844 13.64541,11.34865 21.17144,11.34865 h 49.01063 c 7.50061,0 16.97531,-5.08702 21.14761,-11.34865 l 13.57388,-20.40851 c 2.3349,-3.52699 4.25019,-9.83074 4.25019,-14.06661 l 0.10172,-31.15319 H 123.687 Z"
     id="path18926"
     style="fill:#7a7a7a;fill-opacity:0.701613;stroke:#000000;stroke-width:19.2063;stroke-linecap:round;stroke-linejoin:round;stroke-miterlimit:4;stroke-dasharray:none;stroke-opacity:1" />
  <path
     style="fill:#e3ff88;fill-opacity:1;stroke:#000000;stroke-width:24.7009;stroke-linecap:round;stroke-linejoin:round;stroke-miterlimit:4;stroke-dasharray:none;stroke-opacity:1"
     d="m 205.00429,492.82772 c -52.84634,-91.51251 12.626,-157.82204 143.80264,-179.32097 24.86624,84.91887 -5.08116,210.65643 -143.80264,179.32097 z"
     id="path1606" />
  <!--! Font Awesome Pro 6.1.1 by @fontawesome - https://fontawesome.com License - https://fontawesome.com/license (Commercial License) Copyright 2022 Fonticons, Inc. -->
  <path
     style="fill:none;stroke:#000000;stroke-width:21.172;stroke-linecap:round;stroke-linejoin:miter;stroke-miterlimit:4;stroke-dasharray:none;stroke-opacity:1"
     d="m 205.00429,492.82772 c 10.8755,-49.29526 25.78936,-95.35056 101.72478,-113.07996"
     id="path6144" />
  <path
     d="m 194.71411,102.40842 c -37.9953,0 -68.87887,30.90079 -68.87887,68.10399 0,8.34294 -6.19909,14.54204 -13.77576,14.54204 -7.57668,0 -13.775779,-6.1991 -13.775779,-13.77577 0,-53.17449 43.264539,-95.655534 96.430409,-95.655534 7.61456,0 13.77578,6.163798 13.77578,13.775774 0,7.611976 -6.1991,13.0095 -13.77578,13.0095 z"
     id="path15684"
     style="opacity:1;fill:#ffffff;fill-opacity:1;stroke:#ffffff;stroke-width:4.30493;stroke-miterlimit:4;stroke-dasharray:none;stroke-opacity:1" />
</svg>
