<?xml version="1.0" encoding="UTF-8" standalone="no"?>
<svg
   viewBox="0 0 384 512"
   version="1.1"
   id="svg834"
   xmlns="http://www.w3.org/2000/svg"
   xmlns:svg="http://www.w3.org/2000/svg">
  <defs
     id="defs838" />
  <path
     style="fill:#e3ff88;fill-opacity:1;stroke:none;stroke-width:1px;stroke-linecap:butt;stroke-linejoin:miter;stroke-opacity:1"
     d="M 191.27848,534.03931 C 176.65339,547.85229 156.80927,545.9571 135.30956,546.04793 28.757192,535.83138 13.641949,455.08372 18.3038,359.08078 l 151.17169,5.25546 c 77.31558,14.56409 24.48659,112.17646 21.80299,169.70307 z"
     id="path15002" />
  <path
     style="fill:none;stroke:#000000;stroke-width:26.457;stroke-linecap:round;stroke-linejoin:miter;stroke-miterlimit:4;stroke-dasharray:none;stroke-opacity:1"
     d="M 135.30956,546.04793 C 24.254816,556.21772 9.1671575,377.20617 19.345779,362.59002 c 8.623982,-12.38374 96.981711,-25.28176 150.129711,1.74622"
     id="path10544" />
  <path
     d="M 191.4,0.0132 C 89.44,0.3257 16,82.97 16,175.1 c 0,44.38 16.44,84.84 43.56,115.8 16.53,18.84 42.34,58.23 52.22,91.45 0.0313,0.25 0.0938,0.5166 0.125,0.7823 h 160.2 c 0.0313,-0.2656 0.0938,-0.5166 0.125,-0.7823 9.875,-33.22 35.69,-72.61 52.22,-91.45 C 351.6,260.8 368,220.4 368,175.1 368,78.61 288.9,-0.2837 191.4,0.0132 Z M 192,96.01 c -44.13,0 -80,35.89 -80,79.1 0,9.69 -7.2,16.89 -16,16.89 -8.8,0 -16,-7.2 -16,-16 0,-61.76 50.25,-111.1 112,-111.1 8.844,0 16,7.159 16,16 0,8.841 -7.2,15.11 -16,15.11 z"
     id="path832"
     style="fill:#ffc38c;stroke:#1b1b1b;stroke-width:37.7953;stroke-miterlimit:4;stroke-dasharray:none;stroke-opacity:1;opacity:1;fill-opacity:1;stroke-linejoin:round" />
  <path
     d="m 109.5972,458.80864 c 0,5.81238 1.67624,11.48261 4.87735,16.32856 l 15.82089,23.71289 c 4.84595,7.26893 15.84858,13.181 24.58977,13.181 h 56.92384 c 8.71165,0 19.71613,-5.90837 24.56209,-13.181 l 15.76551,-23.70365 c 2.71189,-4.09645 4.93642,-11.418 4.93642,-16.3378 l 0.11814,-36.18315 H 109.5049 Z"
     id="path18926"
     style="fill:#7a7a7a;fill-opacity:0.70161283;stroke:#000000;stroke-width:22.3073;stroke-linecap:round;stroke-linejoin:round;stroke-miterlimit:4;stroke-dasharray:none;stroke-opacity:1" />
  <path
     style="fill:#e3ff88;fill-opacity:1;stroke:#000000;stroke-width:28.6891;stroke-linecap:round;stroke-linejoin:round;stroke-miterlimit:4;stroke-dasharray:none;stroke-opacity:1"
     d="M 203.95162,549.46609 C 142.57274,443.17805 218.6162,366.16223 370.97251,341.1921 c 28.88113,98.62981 -5.90155,244.66885 -167.02089,208.27399 z"
     id="path1606" />
  <!--! Font Awesome Pro 6.1.1 by @fontawesome - https://fontawesome.com License - https://fontawesome.com/license (Commercial License) Copyright 2022 Fonticons, Inc. -->
  <path
     style="fill:none;stroke:#000000;stroke-width:24.5904;stroke-linecap:round;stroke-linejoin:miter;stroke-miterlimit:4;stroke-dasharray:none;stroke-opacity:1"
     d="M 203.95162,549.46609 C 216.58306,492.21166 233.90491,438.7203 322.1008,418.12833"
     id="path6144" />
  <path
     d="m 192,96.01 c -44.13,0 -80,35.89 -80,79.1 0,9.69 -7.2,16.89 -16,16.89 -8.8,0 -16,-7.2 -16,-16 0,-61.76 50.25,-111.1 112,-111.1 8.844,0 16,7.159 16,16 0,8.841 -7.2,15.11 -16,15.11 z"
     id="path15684"
     style="opacity:1;fill:#ffffff;fill-opacity:1;stroke:#ffffff;stroke-width:5;stroke-miterlimit:4;stroke-dasharray:none;stroke-opacity:1" />
</svg>
